<?xml version="1.0" encoding="UTF-8" standalone="no"?> <svg height="481pt" viewBox="-27 -15 481 481.33438" width="481pt" xmlns="http://www.w3.org/2000/svg"><path d="m164.207031 114.371094c0-6.199219-5.023437-11.226563-11.226562-11.226563-6.195313 0-11.222657 5.027344-11.222657 11.226563v35.921875c-.054687 41.875-30.996093 77.289062-72.480468 82.960937v-181.246094c0-6.195312-5.03125-11.222656-11.226563-11.222656-6.203125 0-11.226562 5.027344-11.226562 11.222656v193.21875c0 6.203126 5.023437 11.226563 11.226562 11.226563 58.601563-.0625 106.09375-47.554687 106.15625-106.160156zm0 0"/><path d="m303.375 262.902344h80.617188c23.664062-.027344 42.839843-19.203125 42.871093-42.867188v-71.238281c-.027343-19.964844-16.207031-36.144531-36.171875-36.171875h-83.019531c-2.878906 0-5.578125-1.398438-7.25-3.742188l-64.753906-90.878906c-8.046875-11.285156-21.050781-17.988281-34.90625-18.003906h-140.292969c-33.734375.0390625-61.078125 27.375-61.117188 61.113281v378.914063c0 6.195312 5.027344 11.222656 11.226563 11.222656h158.226563c6.199218 0 11.226562-5.027344 11.226562-11.222656v-29.667969c17.773438 19.167969 44.457031 27.335937 69.914062 21.410156 6.035157-1.40625 9.796876-7.4375 8.398438-13.472656-8.113281-34.9375-40.410156-58.796875-76.179688-56.285156 10.976563-57.382813 61.125-98.910157 119.550782-98.980469.554687-.003906 1.109375-.042969 1.660156-.128906zm-89.394531 129.023437c7.597656 4.703125 13.800781 11.355469 17.96875 19.261719-18.175781-.578125-34.652344-10.84375-43.175781-26.902344 8.933593.257813 17.636718 2.894532 25.207031 7.640625zm190.429687-243.128906v20.753906l-39.773437-34.472656h26.054687c7.570313.007813 13.710938 6.140625 13.71875 13.71875zm-246.824218 235.910156v1.808594h-135.785157v-23.695313h137.457031c-1.113281 7.242188-1.671874 14.5625-1.675781 21.886719zm-135.785157 44.09375v-19.835937h135.78125v19.835937zm142.441407-188.582031c18.789062 11.785156 39.988281 19.210938 62.027343 21.730469-29.207031 18.007812-51.066406 45.796875-61.691406 78.417969h-142.777344v-279.253907c.027344-21.34375 17.328125-38.640625 38.667969-38.664062h140.292969c6.601562.007812 12.792969 3.195312 16.628906 8.570312l64.757813 90.894531c5.875 8.257813 15.386718 13.15625 25.523437 13.164063h23.378906l-.300781.335937 72.785156 63.089844.871094-1.007812v22.539062c-.007812 11.269532-9.144531 20.402344-20.417969 20.417969h-140.800781c-23.710938.011719-46.941406-6.667969-67.03125-19.269531-5.25-3.273438-12.160156-1.675782-15.441406 3.566406-3.289063 5.242188-1.710938 12.160156 3.519531 15.460938zm0 0"/><path d="m203.128906 115.613281c13.089844 0 23.699219-10.613281 23.699219-23.699219 0-13.089843-10.609375-23.695312-23.699219-23.695312-13.085937 0-23.695312 10.605469-23.695312 23.695312.011718 13.082032 10.613281 23.683594 23.695312 23.699219zm0-24.945312c.691406 0 1.246094.554687 1.246094 1.246093 0 .6875-.554688 1.25-1.246094 1.25-.6875 0-1.246094-.5625-1.246094-1.25 0-.691406.558594-1.246093 1.246094-1.246093zm0 0"/></svg>