<?xml version="1.0" encoding="utf-8"?>
<!-- Generator: Adobe Illustrator 23.0.3, SVG Export Plug-In . SVG Version: 6.00 Build 0)  -->
<svg version="1.1" id="Icons" xmlns="http://www.w3.org/2000/svg" xmlns:xlink="http://www.w3.org/1999/xlink" x="0px" y="0px"
	 viewBox="0 0 32 32" style="enable-background:new 0 0 32 32;" xml:space="preserve">
<g>
	<path d="M9,28H3c-0.6,0-1,0.4-1,1s0.4,1,1,1h6c0.6,0,1-0.4,1-1S9.6,28,9,28z"/>
	<path d="M19,28h-6c-0.6,0-1,0.4-1,1s0.4,1,1,1h6c0.6,0,1-0.4,1-1S19.6,28,19,28z"/>
	<path d="M29,28h-6c-0.6,0-1,0.4-1,1s0.4,1,1,1h6c0.6,0,1-0.4,1-1S29.6,28,29,28z"/>
	<path d="M9,24H3c-0.6,0-1,0.4-1,1s0.4,1,1,1h6c0.6,0,1-0.4,1-1S9.6,24,9,24z"/>
	<path d="M19,24h-6c-0.6,0-1,0.4-1,1s0.4,1,1,1h6c0.6,0,1-0.4,1-1S19.6,24,19,24z"/>
	<path d="M29,24h-6c-0.6,0-1,0.4-1,1s0.4,1,1,1h6c0.6,0,1-0.4,1-1S29.6,24,29,24z"/>
	<path d="M9,20H3c-0.6,0-1,0.4-1,1s0.4,1,1,1h6c0.6,0,1-0.4,1-1S9.6,20,9,20z"/>
	<path d="M19,20h-6c-0.6,0-1,0.4-1,1s0.4,1,1,1h6c0.6,0,1-0.4,1-1S19.6,20,19,20z"/>
	<path d="M29,20h-6c-0.6,0-1,0.4-1,1s0.4,1,1,1h6c0.6,0,1-0.4,1-1S29.6,20,29,20z"/>
	<path d="M9,16H3c-0.6,0-1,0.4-1,1s0.4,1,1,1h6c0.6,0,1-0.4,1-1S9.6,16,9,16z"/>
	<path d="M29,16h-6c-0.6,0-1,0.4-1,1s0.4,1,1,1h6c0.6,0,1-0.4,1-1S29.6,16,29,16z"/>
	<path d="M9,12H3c-0.6,0-1,0.4-1,1s0.4,1,1,1h6c0.6,0,1-0.4,1-1S9.6,12,9,12z"/>
	<path d="M23,14h6c0.6,0,1-0.4,1-1s-0.4-1-1-1h-6c-0.6,0-1,0.4-1,1S22.4,14,23,14z"/>
	<path d="M9,8H3C2.4,8,2,8.4,2,9s0.4,1,1,1h6c0.6,0,1-0.4,1-1S9.6,8,9,8z"/>
	<path d="M9,4H3C2.4,4,2,4.4,2,5s0.4,1,1,1h6c0.6,0,1-0.4,1-1S9.6,4,9,4z"/>
</g>
</svg>
